<svg role="img" viewBox="0 0 85.6 24" xmlns="http://www.w3.org/2000/svg"><title>Canon</title><path fill="#bc0024" d="M17.16 13.24Q15.94 15.95 13.89 17.26Q11.84 18.57 8.81 18.57Q4.38 18.57 2.29 16.13Q0.2 13.69 1.01 9.5Q1.82 5.31 4.87 2.87Q7.92 0.42 12.35 0.42Q13.91 0.42 15.52 0.8Q17.13 1.17 18.87 1.93L18.04 6.23H16.55Q16.52 4.03 15.53 2.94Q14.53 1.84 12.55 1.84Q10 1.84 8.39 3.72Q6.79 5.6 6.02 9.5Q5.26 13.41 6.14 15.28Q7.02 17.16 9.6 17.16Q11.34 17.16 12.64 16.18Q13.93 15.21 14.82 13.24Z M28.96 7.97Q28.92 7.27 28.25 7.27Q26.68 7.27 25.15 9.14Q24.43 10.01 23.87 12.9Q23.45 15.07 23.75 15.91Q24.06 16.75 25.17 16.75Q26.26 16.75 26.95 15.77Q27.63 14.8 28.05 12.62ZM32.94 6.15 30.89 16.82 32.45 16.79 32.17 18.23H26.96L27.27 16.65Q25.98 18.57 23.7 18.57Q21.43 18.57 20.43 17.08Q19.42 15.59 19.93 12.98Q20.44 10.37 22.69 8.11Q25.35 5.44 28.91 5.44Q32.43 5.44 32.94 6.15Z M36 18.23 38.14 7.2H36.38L36.64 5.78H42.56L42.22 7.54Q43.2 6.42 44.25 5.93Q45.3 5.44 46.77 5.44Q48.87 5.44 49.7 6.68Q50.24 7.46 50.24 8.73Q50.24 9.45 50.06 10.31L48.8 16.82H50.58L50.31 18.23H44.38L45.94 10.2Q46.1 9.38 46.1 8.81Q46.1 8.3 45.96 7.99Q45.68 7.38 44.68 7.38Q43.43 7.38 42.66 8.3Q41.89 9.22 41.51 11.23L40.15 18.23Z M59.1 17.25Q60.41 17.25 61.16 16.12Q61.91 15 62.5 12Q62.88 10.04 62.88 8.88Q62.88 8.27 62.77 7.88Q62.46 6.76 61.14 6.76Q59.81 6.76 59.05 7.89Q58.29 9.02 57.71 12Q57.34 13.92 57.34 15.07Q57.34 15.71 57.46 16.11Q57.77 17.25 59.1 17.25ZM54.02 16.83Q52.92 15.56 52.92 13.62Q52.92 12.87 53.09 12Q53.68 8.92 55.89 7.18Q58.1 5.44 61.39 5.44Q64.7 5.44 66.22 7.17Q67.32 8.43 67.32 10.37Q67.32 11.13 67.15 12Q66.55 15.07 64.34 16.82Q62.13 18.57 58.84 18.57Q55.55 18.57 54.02 16.83Z M69.46 18.23 71.6 7.2H69.83L70.1 5.78H76.02L75.68 7.54Q76.65 6.42 77.71 5.93Q78.76 5.44 80.23 5.44Q82.32 5.44 83.16 6.68Q83.7 7.46 83.7 8.73Q83.7 9.45 83.52 10.31L82.25 16.82H84.04L83.77 18.23H77.84L79.39 10.2Q79.56 9.38 79.56 8.81Q79.56 8.3 79.42 7.99Q79.14 7.38 78.14 7.38Q76.89 7.38 76.12 8.3Q75.35 9.22 74.96 11.23L73.61 18.23Z"/></svg>
